<svg width="141" height="15" viewBox="0 0 141 15" fill="none" xmlns="http://www.w3.org/2000/svg">
<path d="M100.959 9.40656C100.959 8.36256 101.169 7.45056 101.589 6.67056C102.021 5.89056 102.615 5.29056 103.371 4.87056C104.139 4.45056 105.015 4.24056 105.999 4.24056C107.259 4.24056 108.309 4.57056 109.149 5.23056C109.477 5.48433 109.761 5.77802 110.002 6.11163C110.631 6.98335 109.805 8.02056 108.731 8.02056C108.021 8.02056 107.455 7.46333 106.848 7.09561C106.598 6.94424 106.297 6.86856 105.945 6.86856C105.381 6.86856 104.931 7.09056 104.595 7.53456C104.259 7.96656 104.091 8.59056 104.091 9.40656C104.091 10.2226 104.259 10.8526 104.595 11.2966C104.931 11.7286 105.381 11.9446 105.945 11.9446C106.298 11.9446 106.6 11.8683 106.851 11.7158C107.455 11.3477 108.019 10.7926 108.727 10.7926C109.802 10.7926 110.622 11.8309 109.987 12.6983C109.749 13.0228 109.47 13.3115 109.149 13.5646C108.297 14.2366 107.247 14.5726 105.999 14.5726C105.015 14.5726 104.139 14.3626 103.371 13.9426C102.615 13.5226 102.021 12.9226 101.589 12.1426C101.169 11.3626 100.959 10.4506 100.959 9.40656Z" fill="#2E2E2E"/>
<path d="M114.009 1.10856C114.859 1.10856 115.548 1.79759 115.548 2.64756V12.8896C115.548 13.7395 114.859 14.4286 114.009 14.4286C113.159 14.4286 112.47 13.7395 112.47 12.8896V2.64756C112.47 1.79759 113.159 1.10856 114.009 1.10856Z" fill="#2E2E2E"/>
<path d="M126.157 4.38456C127.007 4.38456 127.696 5.07359 127.696 5.92356V12.8896C127.696 13.7395 127.007 14.4286 126.157 14.4286H124.947C124.766 14.4286 124.618 14.2814 124.618 14.0999C124.618 13.7789 124.151 13.6079 123.894 13.7992C123.725 13.9245 123.541 14.0383 123.34 14.1406C122.812 14.4046 122.224 14.5366 121.576 14.5366C120.808 14.5366 120.13 14.3686 119.542 14.0326C118.954 13.6846 118.498 13.1866 118.174 12.5386C117.85 11.8906 117.688 11.1286 117.688 10.2526V5.91456C117.688 5.06956 118.373 4.38456 119.218 4.38456C120.063 4.38456 120.748 5.06956 120.748 5.91456V9.83856C120.748 10.5106 120.922 11.0326 121.27 11.4046C121.618 11.7766 122.086 11.9626 122.674 11.9626C123.274 11.9626 123.748 11.7766 124.096 11.4046C124.444 11.0326 124.618 10.5106 124.618 9.83856V5.92356C124.618 5.07359 125.307 4.38456 126.157 4.38456Z" fill="#2E2E2E"/>
<path d="M132.985 4.10449C132.985 4.59025 133.799 4.90116 134.227 4.67256C134.767 4.38456 135.385 4.24056 136.081 4.24056C136.909 4.24056 137.659 4.45056 138.331 4.87056C139.003 5.29056 139.531 5.89056 139.915 6.67056C140.311 7.45056 140.509 8.35656 140.509 9.38856C140.509 10.4206 140.311 11.3326 139.915 12.1246C139.531 12.9046 139.003 13.5106 138.331 13.9426C137.659 14.3626 136.909 14.5726 136.081 14.5726C135.373 14.5726 134.755 14.4346 134.227 14.1586C134.042 14.0576 133.871 13.9456 133.714 13.8225C133.464 13.6265 132.985 13.7927 132.985 14.1104C132.985 14.2861 132.843 14.4286 132.667 14.4286H131.446C130.596 14.4286 129.907 13.7395 129.907 12.8896V2.64756C129.907 1.79759 130.596 1.10856 131.446 1.10856H131.949C132.521 1.10856 132.985 1.57257 132.985 2.14495V4.10449ZM137.377 9.38856C137.377 8.62056 137.161 8.02056 136.729 7.58856C136.309 7.14456 135.787 6.92256 135.163 6.92256C134.551 6.92256 134.029 7.14456 133.597 7.58856C133.177 8.03256 132.967 8.63856 132.967 9.40656C132.967 10.1746 133.177 10.7806 133.597 11.2246C134.029 11.6686 134.551 11.8906 135.163 11.8906C135.775 11.8906 136.297 11.6686 136.729 11.2246C137.161 10.7686 137.377 10.1566 137.377 9.38856Z" fill="#2E2E2E"/>
<path d="M12.816 4.27656C14.064 4.27656 15.054 4.65456 15.786 5.41056C16.53 6.16656 16.902 7.21656 16.902 8.56056V12.8986C16.902 13.7436 16.217 14.4286 15.372 14.4286C14.527 14.4286 13.842 13.7436 13.842 12.8986V8.97456C13.842 8.32656 13.668 7.82856 13.32 7.48056C12.984 7.12056 12.516 6.94056 11.916 6.94056C11.316 6.94056 10.842 7.12056 10.494 7.48056C10.158 7.82856 9.99 8.32656 9.99 8.97456V12.8986C9.99 13.7436 9.305 14.4286 8.46 14.4286C7.61501 14.4286 6.93 13.7436 6.93 12.8986V8.97456C6.93 8.32656 6.756 7.82856 6.408 7.48056C6.072 7.12056 5.604 6.94056 5.004 6.94056C4.404 6.94056 3.93 7.12056 3.582 7.48056C3.246 7.82856 3.078 8.32656 3.078 8.97456V12.8896C3.078 13.7395 2.38897 14.4286 1.539 14.4286C0.689034 14.4286 0 13.7395 0 12.8896V5.92356C0 5.07359 0.689034 4.38456 1.539 4.38456H2.76481C2.93778 4.38456 3.078 4.52478 3.078 4.69775C3.078 4.99946 3.50487 5.15909 3.74889 4.98167C3.91824 4.85855 4.10261 4.74951 4.302 4.65456C4.806 4.40256 5.376 4.27656 6.012 4.27656C6.768 4.27656 7.44 4.43856 8.028 4.76256C8.81385 5.18692 10.0814 5.24665 10.854 4.79856C11.454 4.45056 12.108 4.27656 12.816 4.27656Z" fill="#2E2E2E"/>
<path d="M27.4337 4.38456C28.2837 4.38456 28.9727 5.07359 28.9727 5.92356V12.8896C28.9727 13.7395 28.2837 14.4286 27.4337 14.4286H26.2233C26.0418 14.4286 25.8947 14.2814 25.8947 14.0999C25.8947 13.7789 25.4276 13.6079 25.1699 13.7992C25.0011 13.9245 24.8167 14.0383 24.6167 14.1406C24.0887 14.4046 23.5007 14.5366 22.8527 14.5366C22.0847 14.5366 21.4067 14.3686 20.8187 14.0326C20.2307 13.6846 19.7747 13.1866 19.4507 12.5386C19.1267 11.8906 18.9647 11.1286 18.9647 10.2526V5.91456C18.9647 5.06956 19.6497 4.38456 20.4947 4.38456C21.3397 4.38456 22.0247 5.06956 22.0247 5.91456V9.83856C22.0247 10.5106 22.1987 11.0326 22.5467 11.4046C22.8947 11.7766 23.3627 11.9626 23.9507 11.9626C24.5507 11.9626 25.0247 11.7766 25.3727 11.4046C25.7207 11.0326 25.8947 10.5106 25.8947 9.83856V5.92356C25.8947 5.0736 26.5837 4.38456 27.4337 4.38456Z" fill="#2E2E2E"/>
<path d="M35.2696 14.5726C34.3936 14.5726 33.6136 14.4226 32.9296 14.1226C32.2456 13.8226 31.7056 13.4146 31.3096 12.8986C31.2577 12.8294 31.2088 12.7592 31.1629 12.688C30.6787 11.9367 31.4053 11.1346 32.2991 11.1346H32.6797C33.2513 11.1346 33.7144 11.6376 34.1716 11.9806C34.4596 12.1966 34.8136 12.3046 35.2336 12.3046C35.6176 12.3046 35.9116 12.2326 36.1156 12.0886C36.3316 11.9326 36.4396 11.7346 36.4396 11.4946C36.4396 11.2066 36.2896 10.9966 35.9896 10.8646C35.6896 10.7206 35.2036 10.5646 34.5316 10.3966C33.8116 10.2286 33.2116 10.0546 32.7316 9.87456C32.2516 9.68256 31.8376 9.38856 31.4896 8.99256C31.1416 8.58456 30.9676 8.03856 30.9676 7.35456C30.9676 6.77856 31.1236 6.25656 31.4356 5.78856C31.7596 5.30856 32.2276 4.93056 32.8396 4.65456C33.4636 4.37856 34.2016 4.24056 35.0536 4.24056C36.3136 4.24056 37.3036 4.55256 38.0236 5.17656C38.3541 5.45826 38.6209 5.78154 38.8242 6.1464C39.2388 6.89042 38.5421 7.66056 37.6904 7.66056H37.4165C36.8566 7.66056 36.4146 7.17489 35.9716 6.83256C35.7196 6.62856 35.3836 6.52656 34.9636 6.52656C34.6036 6.52656 34.3276 6.59856 34.1356 6.74256C33.9436 6.87456 33.8476 7.06056 33.8476 7.30056C33.8476 7.58856 33.9976 7.80456 34.2976 7.94856C34.6096 8.09256 35.0896 8.23656 35.7376 8.38056C36.4816 8.57256 37.0876 8.76456 37.5556 8.95656C38.0236 9.13656 38.4316 9.43656 38.7796 9.85656C39.1396 10.2646 39.3256 10.8166 39.3376 11.5126C39.3376 12.1006 39.1696 12.6286 38.8336 13.0966C38.5096 13.5526 38.0356 13.9126 37.4116 14.1766C36.7996 14.4406 36.0856 14.5726 35.2696 14.5726Z" fill="#2E2E2E"/>
<path d="M42.7687 3.34056C42.2287 3.34056 41.7847 3.18456 41.4367 2.87256C41.1007 2.54856 40.9327 2.15256 40.9327 1.68456C40.9327 1.20456 41.1007 0.80856 41.4367 0.496559C41.7847 0.172559 42.2287 0.0105591 42.7687 0.0105591C43.2967 0.0105591 43.7287 0.172559 44.0647 0.496559C44.4127 0.80856 44.5867 1.20456 44.5867 1.68456C44.5867 2.15256 44.4127 2.54856 44.0647 2.87256C43.7287 3.18456 43.2967 3.34056 42.7687 3.34056ZM42.7597 4.38456C43.6097 4.38456 44.2987 5.07359 44.2987 5.92356V12.8896C44.2987 13.7395 43.6097 14.4286 42.7597 14.4286C41.9097 14.4286 41.2207 13.7395 41.2207 12.8896V5.92356C41.2207 5.07359 41.9097 4.38456 42.7597 4.38456Z" fill="#2E2E2E"/>
<path d="M45.9173 9.40656C45.9173 8.36256 46.1273 7.45056 46.5473 6.67056C46.9793 5.89056 47.5733 5.29056 48.3293 4.87056C49.0973 4.45056 49.9733 4.24056 50.9573 4.24056C52.2173 4.24056 53.2673 4.57056 54.1073 5.23056C54.4349 5.48433 54.719 5.77802 54.9597 6.11162C55.5886 6.98335 54.7634 8.02056 53.6885 8.02056C52.9787 8.02056 52.4127 7.46333 51.8056 7.09561C51.5557 6.94424 51.2549 6.86856 50.9033 6.86856C50.3393 6.86856 49.8893 7.09056 49.5533 7.53456C49.2173 7.96656 49.0493 8.59056 49.0493 9.40656C49.0493 10.2226 49.2173 10.8526 49.5533 11.2966C49.8893 11.7286 50.3393 11.9446 50.9033 11.9446C51.2562 11.9446 51.5579 11.8683 51.8084 11.7158C52.413 11.3477 52.9773 10.7926 53.6852 10.7926C54.76 10.7926 55.5794 11.8309 54.9447 12.6983C54.7072 13.0228 54.4281 13.3115 54.1073 13.5646C53.2553 14.2366 52.2053 14.5726 50.9573 14.5726C49.9733 14.5726 49.0973 14.3626 48.3293 13.9426C47.5733 13.5226 46.9793 12.9226 46.5473 12.1426C46.1273 11.3626 45.9173 10.4506 45.9173 9.40656Z" fill="#2E2E2E"/>
</svg>
